#usda 1.0
(
    defaultPrim = "Can"
    metersPerUnit = 1
    upAxis = "Z"
)

def Xform "Can" (
    prepend references = @can.usda@
)
{
    def Points "Keypoints"
    {
        int64[] ids = [0, 1, 2, 3, 4, 5, 6, 7, 8, 9, 10, 11, 12, 13, 14, 15, 16, 17, 18, 19, 20, 21, 22, 23, 24, 25, 26, 27, 28, 29, 30, 31, 32, 33, 34, 35, 36, 37, 38, 39, 40, 41, 42, 43, 44, 45, 46, 47, 48, 49]
        point3f[] points = [(-0.024746075, -0.028836615, -0.020113667), (0.0228803, 0.02843502, 0.011864506), (0.032421377, -0.019096557, -0.0201195), (-0.025418587, 0.028245144, -0.019742906), (0.001057816, -0.010707078, 0.0118805), (-0.036205318, 0.004616592, 0.011713865), (0.009398041, 0.011675172, -0.0201195), (0.036133137, -0.004624096, 0.0118805), (-0.011799385, 0.034341402, 0.0118805), (0.006048041, -0.03599354, -0.0085672345), (-0.03799622, -0.00030782752, -0.019276058), (-0.026658641, -0.024927504, 0.010981359), (0.037043307, 0.008466374, -0.020083837), (0.00074254355, 0.037990887, -0.01869439), (0.022580937, -0.028252324, 0.0118805), (-0.0037085183, -0.011852861, -0.0201195), (0.0027194077, 0.013725495, 0.0118805), (-0.0055670906, -0.035000667, 0.0118805), (0.021626567, 0.02940125, -0.011376576), (-0.014279713, 0.00835184, -0.0201195), (-0.028000994, 0.02340955, 0.0014759827), (0.03387524, 0.013583773, 0.00090894784), (0.006052826, 0.035992768, 0.0015011737), (-0.014833696, 0.0029056377, 0.0118805), (-0.034738503, -0.0111945765, -0.002042726), (0.016188275, -0.007512794, -0.0201195), (0.017614225, 0.0012261246, 0.0118805), (0.031854376, -0.017815996, -0.0011322455), (-0.013200243, 0.034028616, -0.006870714), (-0.013093111, -0.034070242, -0.005123001), (-0.022302127, -0.010802146, -0.0201195), (0.015726898, -0.026285363, -0.0201195), (-0.005468728, -0.028998699, -0.0201195), (0.036455046, -0.0018070542, -0.006672525), (-0.033176668, 0.015210461, -0.012297699), (-0.008188757, 0.024016375, -0.0201195), (0.021024864, -0.029836161, -0.0044321516), (-0.014908371, -0.013837157, 0.0118805), (-0.016618732, 0.018673759, 0.0118805), (-0.026501998, -0.025096128, -0.0047957045), (0.0069509656, -0.02545066, 0.0118805), (0.023658603, 0.01698757, -0.0201195), (-0.029151654, -0.0088514155, 0.0118805), (0.01948023, -0.013639439, 0.0118805), (-0.03632735, 0.0035415331, -0.0036362023), (0.0101102805, 0.026167147, -0.0201195), (0.024667973, 0.013669123, 0.0118805), (0.03049841, -0.004218775, -0.0201195), (-0.0017923635, 0.002278009, -0.0201195), (0.0071151787, 0.026871456, 0.0118805)]
        color3f[] primvars:displayColor = [(1, 0.75, 0.05)]
        float[] widths = [0.0015, 0.0015, 0.0015, 0.0015, 0.0015, 0.0015, 0.0015, 0.0015, 0.0015, 0.0015, 0.0015, 0.0015, 0.0015, 0.0015, 0.0015, 0.0015, 0.0015, 0.0015, 0.0015, 0.0015, 0.0015, 0.0015, 0.0015, 0.0015, 0.0015, 0.0015, 0.0015, 0.0015, 0.0015, 0.0015, 0.0015, 0.0015, 0.0015, 0.0015, 0.0015, 0.0015, 0.0015, 0.0015, 0.0015, 0.0015, 0.0015, 0.0015, 0.0015, 0.0015, 0.0015, 0.0015, 0.0015, 0.0015, 0.0015, 0.0015]
    }
}

